<svg width="130" height="51" viewBox="0 0 130 51" fill="none" xmlns="http://www.w3.org/2000/svg">
<path d="M18.8198 17.9998H11V13.4067H32.2791V17.9998H18.8198Z" fill="#FEFEFF"/>
<path d="M29.6918 38.2616C26.2325 38.2616 23.529 37.3023 21.5523 35.3547C19.6046 33.4361 18.6162 30.6744 18.6162 27.0988V13.436H24.2557V26.8953C24.2557 29.2209 24.7209 30.907 25.6802 31.9244C26.6395 32.9419 27.9767 33.4651 29.6918 33.4651C31.4069 33.4651 32.7441 32.9419 33.7034 31.9244C34.6627 30.907 35.1278 29.2209 35.1278 26.8953V13.436H40.7092V27.0988C40.7092 30.6744 39.7209 33.4361 37.7732 35.3547C35.8255 37.2733 33.122 38.2616 29.6337 38.2616H29.6918Z" fill="#FEFEFF"/>
<path d="M51.9594 37.7966V17.971H44.1396V13.3779H65.4187V17.971H57.599V37.7966H51.9594Z" fill="#FEFEFF"/>
<path d="M79.9824 38.2326C78.0638 38.2326 76.2615 37.9128 74.6336 37.3023C73.0057 36.6628 71.5813 35.7907 70.3894 34.657C69.1976 33.5233 68.2673 32.1861 67.5987 30.6454C66.9301 29.1047 66.6104 27.4477 66.6104 25.6163C66.6104 23.7849 66.9301 22.1279 67.5987 20.5872C68.2673 19.0465 69.1976 17.7093 70.4185 16.5756C71.6394 15.4419 73.0348 14.5407 74.6627 13.9302C76.2906 13.2907 78.0638 13 79.9534 13C81.8429 13 83.6452 13.3198 85.2731 13.9302C86.901 14.5698 88.2964 15.4419 89.4883 16.5756C90.6801 17.7093 91.6104 19.0465 92.308 20.5581C93.0057 22.0698 93.3255 23.7558 93.3255 25.5872C93.3255 27.4186 92.9766 29.0756 92.308 30.6163C91.6394 32.157 90.7092 33.4942 89.4883 34.6279C88.2964 35.7616 86.872 36.6337 85.2731 37.2733C83.6452 37.9128 81.9011 38.2035 79.9824 38.2035V38.2326ZM79.9534 33.407C81.058 33.407 82.0464 33.2326 82.9766 32.8547C83.9069 32.4768 84.6917 31.9535 85.3894 31.2558C86.0871 30.5582 86.6394 29.7442 87.0173 28.7849C87.3952 27.8256 87.5987 26.7791 87.5987 25.6163C87.5987 24.4535 87.3952 23.407 87.0173 22.4477C86.6394 21.4884 86.0871 20.6744 85.4185 19.9767C84.7208 19.2791 83.9359 18.7558 83.0057 18.3779C82.0755 18 81.058 17.8256 79.9824 17.8256C78.9069 17.8256 77.8894 18 76.9592 18.3779C76.029 18.7558 75.2441 19.2791 74.5464 19.9767C73.8487 20.6744 73.2964 21.4884 72.9185 22.4477C72.5406 23.407 72.3371 24.4535 72.3371 25.6163C72.3371 26.7791 72.5406 27.7965 72.9185 28.7849C73.2964 29.7442 73.8487 30.5872 74.5173 31.2849C75.215 31.9826 75.9999 32.5058 76.9301 32.8837C77.8604 33.2616 78.8778 33.4361 79.9534 33.4361V33.407Z" fill="#FEFEFF"/>
<path d="M97.5693 37.7966V13.3779H108.151C110.331 13.3779 112.22 13.7268 113.79 14.4535C115.36 15.1512 116.581 16.1686 117.453 17.5058C118.325 18.8431 118.732 20.4128 118.732 22.2442C118.732 24.0756 118.296 25.6163 117.453 26.9245C116.581 28.2326 115.36 29.25 113.79 29.9477C112.22 30.6454 110.331 30.9942 108.151 30.9942H100.709L103.209 28.5233V37.7966H97.5693ZM103.209 29.1338L100.709 26.4884H107.831C109.575 26.4884 110.883 26.1105 111.726 25.3547C112.598 24.5989 113.005 23.5524 113.005 22.2442C113.005 20.9361 112.569 19.8605 111.726 19.1047C110.854 18.3489 109.575 18 107.831 18H100.709L103.209 15.3256V29.1628V29.1338ZM113.093 37.7966L106.988 28.9303H113.034L119.197 37.7966H113.093Z" fill="#FEFEFF"/>
</svg>
